<svg width="106" height="34" viewBox="0 0 106 34" fill="none" xmlns="http://www.w3.org/2000/svg">
<g filter="url(#filter0_d_0_380)">
<path fill-rule="evenodd" clip-rule="evenodd" d="M72.2747 25V19.656L74.1947 17.544L78.6427 25H84.0827L77.7787 14.568L84.1147 7.528H78.1947L72.2747 13.832V0.776001H67.4747V25H72.2747ZM48.5555 24.2C47.1475 24.9893 45.5795 25.384 43.8515 25.384C42.1235 25.384 40.5502 24.9893 39.1315 24.2C37.7129 23.4107 36.5822 22.328 35.7395 20.952C34.8969 19.576 34.4755 18.0133 34.4755 16.264C34.4755 14.4933 34.8969 12.9253 35.7395 11.56C36.5822 10.1947 37.7129 9.11733 39.1315 8.328C40.5502 7.53867 42.1235 7.144 43.8515 7.144C45.5795 7.144 47.1475 7.53867 48.5555 8.328C49.9635 9.11733 51.0889 10.1947 51.9315 11.56C52.7742 12.9253 53.1955 14.4933 53.1955 16.264C53.1955 18.0133 52.7742 19.576 51.9315 20.952C51.0889 22.328 49.9635 23.4107 48.5555 24.2ZM19.592 13.8L15.528 25H11.368L5.35199 7.528H10.312L13.704 17.672L17.512 7.528H21.672L25.448 17.672L28.84 7.528H33.832L27.784 25H23.624L19.592 13.8ZM43.8515 21.064C42.5502 21.064 41.4889 20.616 40.6675 19.72C39.8462 18.824 39.4355 17.672 39.4355 16.264C39.4355 14.8773 39.8462 13.7307 40.6675 12.824C41.4889 11.9173 42.5502 11.464 43.8515 11.464C45.1529 11.464 46.2089 11.9173 47.0195 12.824C47.8302 13.7307 48.2355 14.8773 48.2355 16.264C48.2355 17.672 47.8302 18.824 47.0195 19.72C46.2089 20.616 45.1529 21.064 43.8515 21.064ZM60.3671 15.592V25H55.5671V7.528H60.0471V10.152C60.4951 9.064 61.1298 8.32267 61.9511 7.928C62.7724 7.53333 63.7164 7.336 64.7831 7.336H65.8071V11.496H64.3031C63.1298 11.496 62.1804 11.8533 61.4551 12.568C60.7298 13.2827 60.3671 14.2907 60.3671 15.592ZM88.5982 1.16V4.68H86.6782V1.16H88.5982ZM88.5982 25V8.008H86.6782V25H88.5982ZM100.314 25.16C100.015 25.1813 99.7804 25.192 99.6098 25.192C98.1804 25.192 97.0871 24.792 96.3298 23.992C95.5724 23.192 95.1938 22.024 95.1938 20.488V9.832H91.9938V8.008H93.2098C93.8284 8.008 94.3138 7.816 94.6658 7.432C95.0178 7.048 95.1938 6.52533 95.1938 5.864V4.04H97.1138V8.008H100.826V9.832H97.1138V20.488C97.1138 20.9573 97.1831 21.416 97.3218 21.864C97.4604 22.312 97.7324 22.6747 98.1378 22.952C98.5431 23.2293 99.1298 23.368 99.8978 23.368C100.068 23.368 100.276 23.3573 100.522 23.336C100.767 23.3147 100.964 23.2933 101.114 23.272V25.032C100.879 25.096 100.612 25.1387 100.314 25.16Z" fill="white"/>
<path d="M72.2747 19.656L71.9047 19.3197L71.7747 19.4627V19.656H72.2747ZM72.2747 25V25.5H72.7747V25H72.2747ZM74.1947 17.544L74.6241 17.2878L74.2785 16.7085L73.8247 17.2077L74.1947 17.544ZM78.6427 25L78.2133 25.2562L78.3587 25.5H78.6427V25ZM84.0827 25V25.5H84.969L84.5106 24.7414L84.0827 25ZM77.7787 14.568L77.407 14.2335L77.1589 14.5092L77.3507 14.8266L77.7787 14.568ZM84.1147 7.528L84.4863 7.86248L85.2373 7.028H84.1147V7.528ZM78.1947 7.528V7.028H77.9783L77.8302 7.18572L78.1947 7.528ZM72.2747 13.832H71.7747V15.0948L72.6391 14.1743L72.2747 13.832ZM72.2747 0.776001H72.7747V0.276001H72.2747V0.776001ZM67.4747 0.776001V0.276001H66.9747V0.776001H67.4747ZM67.4747 25H66.9747V25.5H67.4747V25ZM35.7395 20.952L36.1659 20.6909L35.7395 20.952ZM35.7395 11.56L36.165 11.8226L35.7395 11.56ZM51.9315 11.56L51.5061 11.8226L51.9315 11.56ZM51.9315 20.952L51.5051 20.6909L51.9315 20.952ZM15.528 25V25.5H15.8785L15.998 25.1705L15.528 25ZM19.592 13.8L20.0624 13.6306L19.5938 12.329L19.122 13.6295L19.592 13.8ZM11.368 25L10.8952 25.1628L11.0113 25.5H11.368V25ZM5.35199 7.528V7.028H4.65102L4.87923 7.69078L5.35199 7.528ZM10.312 7.528L10.7862 7.36944L10.672 7.028H10.312V7.528ZM13.704 17.672L13.2298 17.8306L13.6768 19.1672L14.1721 17.8477L13.704 17.672ZM17.512 7.528V7.028H17.1656L17.0439 7.35228L17.512 7.528ZM21.672 7.528L22.1406 7.35357L22.0194 7.028H21.672V7.528ZM25.448 17.672L24.9794 17.8464L25.4733 19.1731L25.9222 17.8306L25.448 17.672ZM28.84 7.528V7.028H28.48L28.3658 7.36944L28.84 7.528ZM33.832 7.528L34.3045 7.69156L34.5342 7.028H33.832V7.528ZM27.784 25V25.5H28.14L28.2565 25.1636L27.784 25ZM23.624 25L23.1535 25.1694L23.2726 25.5H23.624V25ZM40.6675 19.72L40.299 20.0579L40.6675 19.72ZM40.6675 12.824L40.297 12.4883H40.297L40.6675 12.824ZM47.0195 12.824L46.6468 13.1573V13.1573L47.0195 12.824ZM47.0195 19.72L46.6488 19.3845L47.0195 19.72ZM60.3671 25V25.5H60.8671V25H60.3671ZM55.5671 25H55.0671V25.5H55.5671V25ZM55.5671 7.528V7.028H55.0671V7.528H55.5671ZM60.0471 7.528H60.5471V7.028H60.0471V7.528ZM60.0471 10.152H59.5471L60.5094 10.3424L60.0471 10.152ZM61.9511 7.928L61.7345 7.47733V7.47733L61.9511 7.928ZM65.8071 7.336H66.3071V6.836H65.8071V7.336ZM65.8071 11.496V11.996H66.3071V11.496H65.8071ZM88.5982 4.68V5.18H89.0982V4.68H88.5982ZM88.5982 1.16H89.0982V0.660001H88.5982V1.16ZM86.6782 4.68H86.1782V5.18H86.6782V4.68ZM86.6782 1.16V0.660001H86.1782V1.16H86.6782ZM88.5982 8.008H89.0982V7.508H88.5982V8.008ZM88.5982 25V25.5H89.0982V25H88.5982ZM86.6782 8.008V7.508H86.1782V8.008H86.6782ZM86.6782 25H86.1782V25.5H86.6782V25ZM95.1938 9.832H95.6938V9.332H95.1938V9.832ZM91.9938 9.832H91.4938V10.332H91.9938V9.832ZM91.9938 8.008V7.508H91.4938V8.008H91.9938ZM94.6658 7.432L94.2972 7.09414V7.09414L94.6658 7.432ZM95.1938 4.04V3.54H94.6938V4.04H95.1938ZM97.1138 4.04H97.6138V3.54H97.1138V4.04ZM97.1138 8.008H96.6138V8.508H97.1138V8.008ZM100.826 8.008H101.326V7.508H100.826V8.008ZM100.826 9.832V10.332H101.326V9.832H100.826ZM97.1138 9.832V9.332H96.6138V9.832H97.1138ZM97.3218 21.864L97.7994 21.7162L97.7994 21.7162L97.3218 21.864ZM98.1378 22.952L97.8554 23.3647L97.8554 23.3647L98.1378 22.952ZM101.114 23.272H101.614V22.6955L101.043 22.777L101.114 23.272ZM101.114 25.032L101.245 25.5144L101.614 25.4139V25.032H101.114ZM71.7747 19.656V25H72.7747V19.656H71.7747ZM73.8247 17.2077L71.9047 19.3197L72.6446 19.9923L74.5646 17.8803L73.8247 17.2077ZM79.0721 24.7438L74.6241 17.2878L73.7653 17.8002L78.2133 25.2562L79.0721 24.7438ZM84.0827 24.5H78.6427V25.5H84.0827V24.5ZM77.3507 14.8266L83.6547 25.2586L84.5106 24.7414L78.2066 14.3094L77.3507 14.8266ZM83.743 7.19352L77.407 14.2335L78.1503 14.9025L84.4863 7.86248L83.743 7.19352ZM78.1947 8.028H84.1147V7.028H78.1947V8.028ZM72.6391 14.1743L78.5591 7.87028L77.8302 7.18572L71.9102 13.4897L72.6391 14.1743ZM71.7747 0.776001V13.832H72.7747V0.776001H71.7747ZM67.4747 1.276H72.2747V0.276001H67.4747V1.276ZM67.9747 25V0.776001H66.9747V25H67.9747ZM72.2747 24.5H67.4747V25.5H72.2747V24.5ZM43.8515 25.884C45.6589 25.884 47.3121 25.4703 48.8 24.6361L48.311 23.7639C46.983 24.5084 45.5002 24.884 43.8515 24.884V25.884ZM38.8884 24.6369C40.3863 25.4703 42.0441 25.884 43.8515 25.884V24.884C42.203 24.884 40.7142 24.5084 39.3746 23.7631L38.8884 24.6369ZM35.3132 21.2131C36.2011 22.663 37.3951 23.806 38.8884 24.6369L39.3746 23.7631C38.0307 23.0153 36.9634 21.993 36.1659 20.6909L35.3132 21.2131ZM33.9755 16.264C33.9755 18.0975 34.4183 19.7519 35.3132 21.2131L36.1659 20.6909C35.3754 19.4001 34.9755 17.9292 34.9755 16.264H33.9755ZM35.3141 11.2974C34.4177 12.7497 33.9755 14.4105 33.9755 16.264H34.9755C34.9755 14.5762 35.376 13.101 36.165 11.8226L35.3141 11.2974ZM38.8884 7.89108C37.396 8.72145 36.2022 9.85842 35.3141 11.2974L36.165 11.8226C36.9622 10.5309 38.0297 9.51321 39.3746 8.76492L38.8884 7.89108ZM43.8515 6.644C42.0441 6.644 40.3863 7.05771 38.8884 7.89108L39.3746 8.76492C40.7142 8.01962 42.203 7.644 43.8515 7.644V6.644ZM48.8 7.89186C47.3121 7.05771 45.6589 6.644 43.8515 6.644V7.644C45.5002 7.644 46.983 8.01963 48.311 8.76414L48.8 7.89186ZM52.357 11.2974C51.4695 9.85933 50.2817 8.72246 48.8 7.89186L48.311 8.76414C49.6454 9.5122 50.7083 10.53 51.5061 11.8226L52.357 11.2974ZM53.6955 16.264C53.6955 14.4105 53.2534 12.7497 52.357 11.2974L51.5061 11.8226C52.2951 13.101 52.6955 14.5762 52.6955 16.264H53.6955ZM52.3579 21.2131C53.2528 19.7519 53.6955 18.0975 53.6955 16.264H52.6955C52.6955 17.9292 52.2957 19.4001 51.5051 20.6909L52.3579 21.2131ZM48.8 24.6361C50.2826 23.805 51.4706 22.6621 52.3579 21.2131L51.5051 20.6909C50.7072 21.9939 49.6445 23.0163 48.311 23.7639L48.8 24.6361ZM15.998 25.1705L20.062 13.9705L19.122 13.6295L15.058 24.8295L15.998 25.1705ZM11.368 25.5H15.528V24.5H11.368V25.5ZM4.87923 7.69078L10.8952 25.1628L11.8407 24.8372L5.82475 7.36522L4.87923 7.69078ZM10.312 7.028H5.35199V8.028H10.312V7.028ZM14.1782 17.5134L10.7862 7.36944L9.8378 7.68656L13.2298 17.8306L14.1782 17.5134ZM17.0439 7.35228L13.2359 17.4963L14.1721 17.8477L17.9801 7.70372L17.0439 7.35228ZM21.672 7.028H17.512V8.028H21.672V7.028ZM25.9166 17.4976L22.1406 7.35357L21.2034 7.70243L24.9794 17.8464L25.9166 17.4976ZM28.3658 7.36944L24.9738 17.5134L25.9222 17.8306L29.3142 7.68656L28.3658 7.36944ZM33.832 7.028H28.84V8.028H33.832V7.028ZM28.2565 25.1636L34.3045 7.69156L33.3595 7.36445L27.3115 24.8364L28.2565 25.1636ZM23.624 25.5H27.784V24.5H23.624V25.5ZM19.1215 13.9694L23.1535 25.1694L24.0944 24.8306L20.0624 13.6306L19.1215 13.9694ZM40.299 20.0579C41.2223 21.0651 42.4212 21.564 43.8515 21.564V20.564C42.6793 20.564 41.7555 20.1669 41.0361 19.3821L40.299 20.0579ZM38.9355 16.264C38.9355 17.7759 39.3798 19.0552 40.299 20.0579L41.0361 19.3821C40.3126 18.5928 39.9355 17.5681 39.9355 16.264H38.9355ZM40.297 12.4883C39.3811 13.4993 38.9355 14.771 38.9355 16.264H39.9355C39.9355 14.9836 40.3113 13.962 41.0381 13.1597L40.297 12.4883ZM43.8515 10.964C42.4192 10.964 41.2197 11.4697 40.297 12.4883L41.0381 13.1597C41.7581 12.3649 42.6813 11.964 43.8515 11.964V10.964ZM47.3923 12.4907C46.4795 11.4699 45.284 10.964 43.8515 10.964V11.964C45.0218 11.964 45.9382 12.3648 46.6468 13.1573L47.3923 12.4907ZM48.7355 16.264C48.7355 14.7728 48.2964 13.5019 47.3923 12.4907L46.6468 13.1573C47.364 13.9594 47.7355 14.9819 47.7355 16.264H48.7355ZM47.3903 20.0555C48.2977 19.0525 48.7355 17.7742 48.7355 16.264H47.7355C47.7355 17.5698 47.3627 18.5955 46.6488 19.3845L47.3903 20.0555ZM43.8515 21.564C45.2819 21.564 46.477 21.065 47.3903 20.0555L46.6488 19.3845C45.9408 20.167 45.0238 20.564 43.8515 20.564V21.564ZM60.8671 25V15.592H59.8671V25H60.8671ZM55.5671 25.5H60.3671V24.5H55.5671V25.5ZM55.0671 7.528V25H56.0671V7.528H55.0671ZM60.0471 7.028H55.5671V8.028H60.0471V7.028ZM60.5471 10.152V7.528H59.5471V10.152H60.5471ZM61.7345 7.47733C60.7726 7.93955 60.0657 8.79368 59.5848 9.96163L60.5094 10.3424C60.9245 9.33432 61.4869 8.70578 62.1677 8.37867L61.7345 7.47733ZM64.7831 6.836C63.6542 6.836 62.634 7.0451 61.7345 7.47733L62.1677 8.37867C62.9108 8.02157 63.7787 7.836 64.7831 7.836V6.836ZM65.8071 6.836H64.7831V7.836H65.8071V6.836ZM66.3071 11.496V7.336H65.3071V11.496H66.3071ZM64.3031 11.996H65.8071V10.996H64.3031V11.996ZM61.806 12.9242C62.4235 12.3158 63.2395 11.996 64.3031 11.996V10.996C63.0201 10.996 61.9374 11.3909 61.1042 12.2118L61.806 12.9242ZM60.8671 15.592C60.8671 14.3854 61.2007 13.5206 61.806 12.9242L61.1042 12.2118C60.2588 13.0448 59.8671 14.1959 59.8671 15.592H60.8671ZM89.0982 4.68V1.16H88.0982V4.68H89.0982ZM86.6782 5.18H88.5982V4.18H86.6782V5.18ZM86.1782 1.16V4.68H87.1782V1.16H86.1782ZM88.5982 0.660001H86.6782V1.66H88.5982V0.660001ZM88.0982 8.008V25H89.0982V8.008H88.0982ZM86.6782 8.508H88.5982V7.508H86.6782V8.508ZM87.1782 25V8.008H86.1782V25H87.1782ZM88.5982 24.5H86.6782V25.5H88.5982V24.5ZM99.6098 25.692C99.7979 25.692 100.046 25.6804 100.349 25.6587L100.278 24.6613C99.9839 24.6823 99.7629 24.692 99.6098 24.692V25.692ZM95.9667 24.3357C96.8444 25.2629 98.0861 25.692 99.6098 25.692V24.692C98.2748 24.692 97.3298 24.3211 96.6929 23.6483L95.9667 24.3357ZM94.6938 20.488C94.6938 22.101 95.0918 23.4116 95.9667 24.3357L96.6929 23.6483C96.0531 22.9724 95.6938 21.947 95.6938 20.488H94.6938ZM94.6938 9.832V20.488H95.6938V9.832H94.6938ZM91.9938 10.332H95.1938V9.332H91.9938V10.332ZM91.4938 8.008V9.832H92.4938V8.008H91.4938ZM93.2098 7.508H91.9938V8.508H93.2098V7.508ZM94.2972 7.09414C94.0577 7.35545 93.7169 7.508 93.2098 7.508V8.508C93.9399 8.508 94.5699 8.27655 95.0343 7.76986L94.2972 7.09414ZM94.6938 5.864C94.6938 6.43521 94.5437 6.82524 94.2972 7.09414L95.0343 7.76987C95.4919 7.27076 95.6938 6.61546 95.6938 5.864H94.6938ZM94.6938 4.04V5.864H95.6938V4.04H94.6938ZM97.1138 3.54H95.1938V4.54H97.1138V3.54ZM97.6138 8.008V4.04H96.6138V8.008H97.6138ZM100.826 7.508H97.1138V8.508H100.826V7.508ZM101.326 9.832V8.008H100.326V9.832H101.326ZM97.1138 10.332H100.826V9.332H97.1138V10.332ZM97.6138 20.488V9.832H96.6138V20.488H97.6138ZM97.7994 21.7162C97.6756 21.3161 97.6138 20.9073 97.6138 20.488H96.6138C96.6138 21.0074 96.6906 21.5159 96.8441 22.0118L97.7994 21.7162ZM98.4201 22.5394C98.1031 22.3225 97.9031 22.051 97.7994 21.7162L96.8441 22.0118C97.0178 22.573 97.3617 23.0269 97.8554 23.3647L98.4201 22.5394ZM99.8978 22.868C99.178 22.868 98.7075 22.736 98.4201 22.5393L97.8554 23.3647C98.3787 23.7227 99.0816 23.868 99.8978 23.868V22.868ZM100.478 22.8379C100.242 22.8585 100.049 22.868 99.8978 22.868V23.868C100.088 23.868 100.311 23.8562 100.565 23.8341L100.478 22.8379ZM101.043 22.777C100.907 22.7965 100.72 22.8169 100.478 22.8379L100.565 23.8341C100.815 23.8124 101.022 23.7902 101.184 23.767L101.043 22.777ZM101.614 25.032V23.272H100.614V25.032H101.614ZM100.349 25.6587C100.673 25.6356 100.973 25.5886 101.245 25.5144L100.982 24.5496C100.785 24.6034 100.551 24.6417 100.278 24.6613L100.349 25.6587Z" fill="black"/>
</g>
<defs>
<filter id="filter0_d_0_380" x="0.651001" y="0.276001" width="104.963" height="33.608" filterUnits="userSpaceOnUse" color-interpolation-filters="sRGB">
<feFlood flood-opacity="0" result="BackgroundImageFix"/>
<feColorMatrix in="SourceAlpha" type="matrix" values="0 0 0 0 0 0 0 0 0 0 0 0 0 0 0 0 0 0 127 0" result="hardAlpha"/>
<feOffset dy="4"/>
<feGaussianBlur stdDeviation="2"/>
<feComposite in2="hardAlpha" operator="out"/>
<feColorMatrix type="matrix" values="0 0 0 0 0 0 0 0 0 0 0 0 0 0 0 0 0 0 0.25 0"/>
<feBlend mode="normal" in2="BackgroundImageFix" result="effect1_dropShadow_0_380"/>
<feBlend mode="normal" in="SourceGraphic" in2="effect1_dropShadow_0_380" result="shape"/>
</filter>
</defs>
</svg>
